<?xml version="1.0" standalone="no"?>
<!DOCTYPE svg PUBLIC "-//W3C//DTD SVG 20010904//EN"
 "http://www.w3.org/TR/2001/REC-SVG-20010904/DTD/svg10.dtd">
<svg version="1.0" xmlns="http://www.w3.org/2000/svg" width="1280.000000pt" height="904.000000pt" viewBox="0 0 1280.000000 904.000000" preserveAspectRatio="xMidYMid meet">
    <g transform="translate(0.000000,904.000000) scale(0.100000,-0.100000)" fill="#6F6BE9" stroke="none">
        <path d="M6190 8889 c-734 -33 -1433 -245 -2065 -627 -620 -375 -1151 -916
-1510 -1537 -75 -130 -193 -366 -240 -480 -20 -49 -41 -99 -46 -110 -49 -110
-120 -333 -174 -545 -137 -537 -166 -1116 -84 -1680 52 -354 163 -757 288
-1045 182 -418 401 -784 650 -1085 136 -163 337 -370 496 -511 28 -24 52 -46
55 -49 5 -5 117 -97 150 -123 8 -7 47 -35 85 -63 426 -308 827 -509 1345 -672
33 -10 234 -61 325 -82 119 -28 343 -63 520 -82 157 -17 633 -17 795 0 652 69
1239 254 1775 560 156 89 444 286 560 383 11 9 48 40 82 68 79 65 331 298 340
316 5 7 35 42 68 77 168 175 422 518 534 722 18 32 46 81 63 109 58 99 206
408 229 477 4 14 22 61 39 105 142 368 228 763 265 1218 19 235 19 382 0 612
-32 405 -94 711 -215 1076 -362 1085 -1145 1989 -2170 2504 -206 104 -431 198
-599 251 -25 8 -62 19 -81 26 -19 6 -48 14 -65 18 -16 5 -82 22 -145 38 -268
72 -568 117 -830 127 -85 3 -180 7 -210 9 -30 2 -134 0 -230 -5z m-625 -2469
c179 -51 589 -281 800 -448 6 -4 26 -19 45 -32 44 -31 244 -194 334 -274 248
-217 428 -387 718 -674 l237 -235 48 6 c95 11 308 38 317 41 6 1 -17 18 -50
36 -89 51 -210 179 -261 275 -56 108 -117 325 -95 339 5 3 33 -20 63 -50 109
-112 201 -168 345 -208 181 -50 332 -66 651 -66 251 -1 422 -16 564 -50 461
-109 814 -372 928 -692 26 -74 45 -189 38 -235 -16 -105 -27 -157 -36 -166 -6
-6 -20 2 -38 24 -54 67 -174 179 -191 179 -9 0 -62 -11 -117 -24 -109 -27
-234 -57 -445 -106 -74 -18 -153 -37 -175 -43 -22 -6 -44 -12 -50 -13 -5 -1
-127 -30 -270 -64 -143 -34 -316 -75 -385 -91 -69 -17 -161 -39 -205 -49 -44
-11 -163 -39 -265 -63 -102 -25 -248 -59 -325 -77 -77 -18 -185 -44 -240 -57
-55 -14 -109 -26 -120 -28 -11 -2 -85 -19 -165 -39 -80 -19 -165 -40 -190 -45
-84 -20 -729 -175 -795 -191 -22 -6 -47 -13 -55 -15 -8 -2 -48 -11 -89 -20
-41 -9 -77 -18 -81 -20 -4 -2 -22 -7 -41 -10 -32 -6 -97 -21 -404 -95 -66 -16
-176 -42 -245 -58 -264 -63 -253 -62 -264 -17 -9 34 -16 43 -106 135 -113 114
-218 176 -675 395 -248 118 -303 146 -393 197 -144 83 -247 166 -308 249 -37
51 -70 137 -57 150 5 4 96 19 203 34 107 14 209 28 225 31 35 5 473 62 800
104 127 17 277 37 335 45 104 15 277 37 420 55 41 6 89 12 105 15 17 3 136 19
265 35 129 17 246 33 260 35 14 2 131 18 260 35 347 45 419 56 426 62 4 5
-258 334 -457 573 -10 11 -67 82 -127 157 -60 76 -146 181 -190 235 -145 176
-376 459 -407 499 -16 21 -40 49 -52 62 l-21 23 -53 -27 c-162 -82 -430 -145
-834 -198 -244 -32 -444 -46 -780 -52 -593 -13 -974 37 -1168 151 -51 29 -72
51 -82 84 -6 18 -4 23 6 18 162 -70 255 -83 495 -67 136 9 313 29 393 45 14 2
61 9 105 15 106 14 304 46 441 70 61 11 151 27 200 35 160 27 368 64 455 80
47 9 108 20 135 25 28 5 86 16 130 24 89 16 129 23 207 32 29 4 55 8 58 11 13
12 239 -1 295 -17z m61 -487 c10 -16 215 -276 244 -310 12 -15 7 -18 -55 -31
-121 -27 -408 -58 -690 -75 -262 -16 -1049 -16 -1280 0 -479 33 -809 98 -950
186 -45 28 -77 88 -37 72 75 -31 140 -49 248 -69 12 -3 84 -10 160 -17 254
-22 723 5 1154 67 58 8 125 17 150 20 25 2 70 9 100 14 30 6 163 28 295 50
235 39 495 85 565 100 59 13 85 11 96 -7z m468 -620 c75 -94 136 -173 136
-176 0 -2 -24 -7 -52 -11 -29 -4 -93 -13 -143 -21 -264 -42 -901 -51 -1450
-19 -113 6 -523 52 -630 70 -49 8 -106 17 -125 19 -48 6 -262 52 -329 70 -126
34 -240 87 -296 136 -33 30 -49 67 -22 56 163 -74 311 -114 547 -148 111 -17
187 -20 435 -20 318 1 323 1 625 32 267 27 504 64 955 150 163 30 199 37 206
35 4 0 68 -78 143 -173z m-2485 -227 c83 -42 304 -117 426 -145 260 -58 346
-66 735 -65 214 0 400 5 450 12 131 17 231 30 275 35 65 8 183 27 290 47 85
16 169 31 485 86 25 5 48 8 52 9 3 0 34 -36 69 -80 34 -44 66 -81 71 -83 4 -2
8 -10 8 -17 0 -8 6 -18 13 -22 7 -4 29 -28 48 -53 18 -24 42 -53 51 -64 31
-34 27 -36 -242 -66 -287 -33 -885 -20 -1380 30 -129 13 -485 64 -600 86 -47
9 -106 20 -131 24 -157 28 -439 112 -544 161 -77 36 -192 139 -156 139 6 0 42
-15 80 -34z"/>
        <path d="M9115 4844 c-102 -15 -146 -30 -152 -51 -9 -26 158 -105 250 -118 56
-7 136 13 187 47 44 30 46 41 13 72 -65 60 -143 73 -298 50z"/>
    </g>
</svg>
